<?xml version="1.0" encoding="UTF-8"?>
<svg width="351px" height="80px" viewBox="0 0 351 80" version="1.1" xmlns="http://www.w3.org/2000/svg" xmlns:xlink="http://www.w3.org/1999/xlink">
    <!-- Generator: Sketch 51 (57462) - http://www.bohemiancoding.com/sketch -->
    <title>ReadyTest</title>
    <desc>Created with Sketch.</desc>
    <defs></defs>
    <g id="Page-1" stroke="none" stroke-width="1" fill="none" fill-rule="evenodd">
        <g id="Artboard" transform="translate(-601.000000, -168.000000)" fill="#000000">
            <g id="Hero-White" transform="translate(512.000000, 146.000000)">
                <path d="M91.6464844,24.6523438 L91.6464844,56.2929688 L109.048828,56.2929688 C120.386719,56.2929688 127.286133,50.2724609 127.286133,40.4726562 C127.286133,30.4970703 120.386719,24.6523438 109.048828,24.6523438 L91.6464844,24.6523438 Z M91.6464844,58.3144531 L91.6464844,86 L89.4492188,86 L89.4492188,22.5869141 L109.092773,22.5869141 C121.749023,22.5869141 129.483398,29.3544922 129.483398,40.4726562 C129.483398,49.7011719 123.814453,56.2050781 114.234375,57.875 L131.021484,86 L128.472656,86 L111.949219,58.2265625 C111.202148,58.2705078 109.927734,58.3144531 109.048828,58.3144531 L91.6464844,58.3144531 Z M153.56543,41.6152344 C143.370117,41.6152344 136.426758,49.4814453 135.943359,61.3027344 L170.835938,61.3027344 C170.835938,49.6132812 163.892578,41.6152344 153.56543,41.6152344 Z M170.220703,73.2998047 L172.461914,73.2998047 C170.923828,80.9902344 164.15625,86.6591797 153.916992,86.6591797 C141.65625,86.6591797 133.702148,78.0019531 133.702148,63.1484375 C133.702148,48.9541016 141.612305,39.6376953 153.56543,39.6376953 C165.254883,39.6376953 173.033203,48.5146484 173.033203,61.6103516 L173.033203,63.2802734 L135.899414,63.2802734 L135.899414,63.3681641 C135.899414,76.9033203 143.0625,84.6816406 153.960938,84.6816406 C163.057617,84.6816406 168.858398,79.7597656 170.220703,73.2998047 Z M194.874023,84.6816406 C204.454102,84.6816406 212.232422,77.7382812 212.232422,69.1689453 L212.232422,61.4785156 L196.060547,62.7089844 C186.832031,63.4121094 181.822266,67.3232422 181.822266,73.8710938 C181.822266,80.1113281 187.359375,84.6816406 194.874023,84.6816406 Z M194.742188,86.6591797 C185.90918,86.6591797 179.668945,81.4296875 179.668945,73.8710938 C179.668945,66.0927734 185.206055,61.6982422 195.75293,60.8193359 L212.232422,59.5888672 L212.232422,55.4580078 C212.232422,46.8447266 207.09082,41.6152344 198.477539,41.6152344 C189.996094,41.6152344 184.546875,45.9658203 183.360352,53.6123047 L181.250977,53.6123047 C182.261719,44.9550781 188.80957,39.6376953 198.477539,39.6376953 C208.321289,39.6376953 214.385742,45.6142578 214.385742,55.2822266 L214.385742,86 L212.232422,86 L212.232422,75.6289062 L212.188477,75.6289062 C209.991211,82.1328125 202.87207,86.6591797 194.742188,86.6591797 Z M241.412109,86.6591797 C230.030273,86.6591797 221.944336,77.1230469 221.944336,63.1484375 C221.944336,49.1298828 229.986328,39.6376953 241.412109,39.6376953 C250.464844,39.6376953 257.452148,45.921875 259.209961,53.65625 L259.297852,53.65625 L259.297852,22.5869141 L261.495117,22.5869141 L261.495117,86 L259.473633,86 L259.473633,72.4208984 L259.385742,72.4208984 C257.496094,80.375 250.464844,86.6591797 241.412109,86.6591797 Z M241.543945,41.6152344 C231.348633,41.6152344 224.141602,50.3164062 224.141602,63.1044922 C224.141602,75.9365234 231.348633,84.6816406 241.543945,84.6816406 C251.915039,84.6816406 259.297852,75.8486328 259.297852,63.1484375 C259.297852,50.4482422 251.915039,41.6152344 241.543945,41.6152344 Z M274.283203,101.424805 C273.404297,101.424805 272.525391,101.161133 272.217773,101.073242 L272.217773,99.0517578 C272.657227,99.2275391 273.624023,99.4033203 274.458984,99.4033203 C278.501953,99.4033203 280.655273,97.1621094 283.160156,90.7021484 L284.698242,86.7910156 L267.076172,40.296875 L269.449219,40.296875 L285.84082,83.9345703 L285.928711,83.9345703 L302.364258,40.296875 L304.737305,40.296875 L286.719727,87.8896484 C282.544922,98.8759766 280.259766,101.424805 274.283203,101.424805 Z M323.106445,86 L320.90918,86 L320.90918,24.6523438 L298.057617,24.6523438 L298.057617,22.5869141 L345.958008,22.5869141 L345.958008,24.6523438 L323.106445,24.6523438 L323.106445,86 Z M359.317383,41.6152344 C349.12207,41.6152344 342.178711,49.4814453 341.695312,61.3027344 L376.587891,61.3027344 C376.587891,49.6132812 369.644531,41.6152344 359.317383,41.6152344 Z M375.972656,73.2998047 L378.213867,73.2998047 C376.675781,80.9902344 369.908203,86.6591797 359.668945,86.6591797 C347.408203,86.6591797 339.454102,78.0019531 339.454102,63.1484375 C339.454102,48.9541016 347.364258,39.6376953 359.317383,39.6376953 C371.006836,39.6376953 378.785156,48.5146484 378.785156,61.6103516 L378.785156,63.2802734 L341.651367,63.2802734 L341.651367,63.3681641 C341.651367,76.9033203 348.814453,84.6816406 359.712891,84.6816406 C368.80957,84.6816406 374.610352,79.7597656 375.972656,73.2998047 Z M385.464844,51.7226562 C385.464844,44.6914062 391.836914,39.6376953 400.669922,39.6376953 C409.898438,39.6376953 416.006836,44.8671875 416.973633,53.5683594 L414.864258,53.5683594 C413.80957,46.0976562 408.448242,41.5712891 400.669922,41.5712891 C393.155273,41.5712891 387.662109,45.8779297 387.662109,51.6347656 C387.662109,56.46875 390.870117,59.1494141 398.824219,60.9951172 L404.976562,62.4013672 C414.029297,64.5107422 417.632812,67.8945312 417.632812,74.1347656 C417.632812,81.4736328 410.90918,86.6591797 401.329102,86.6591797 C391.792969,86.6591797 384.585938,81.0341797 383.926758,73.0800781 L386.080078,73.0800781 C386.915039,79.8916016 393.155273,84.7255859 401.285156,84.7255859 C409.546875,84.7255859 415.435547,80.375 415.435547,74.2666016 C415.435547,68.9931641 412.31543,66.1806641 404.317383,64.3349609 L398.208984,62.9287109 C389.419922,60.9511719 385.464844,57.4794922 385.464844,51.7226562 Z M427.696289,28.0361328 L429.849609,28.0361328 L429.849609,40.296875 L439.078125,40.296875 L439.078125,42.2744141 L429.849609,42.2744141 L429.849609,75.9804688 C429.849609,81.78125 431.915039,84.0224609 436.749023,84.0224609 C436.792969,84.0224609 439.825195,84.0224609 439.913086,83.9785156 L439.913086,86 C439.825195,86 436.749023,86.0439453 436.617188,86.0439453 C430.420898,86.0439453 427.696289,83.2314453 427.696289,76.0244141 L427.696289,42.2744141 L420.884766,42.2744141 L420.884766,40.296875 L427.696289,40.296875 L427.696289,28.0361328 Z" id="ReadyTest"></path>
            </g>
        </g>
    </g>
</svg>
