<?xml version="1.0" encoding="UTF-8"?>
<svg width="103px" height="24px" viewBox="0 0 103 24" version="1.1" xmlns="http://www.w3.org/2000/svg" xmlns:xlink="http://www.w3.org/1999/xlink">
    <!-- Generator: Sketch 51 (57462) - http://www.bohemiancoding.com/sketch -->
    <title>ReadyTest</title>
    <desc>Created with Sketch.</desc>
    <defs></defs>
    <g id="Page-1" stroke="none" stroke-width="1" fill="none" fill-rule="evenodd">
        <g id="Artboard" transform="translate(-528.000000, -14.000000)" fill="#FFFFFF">
            <g id="Menu">
                <g id="Logo" transform="translate(499.000000, 8.000000)">
                    <path d="M31.4404297,8.22949219 L31.4404297,15.9609375 L36.0361328,15.9609375 C38.7021484,15.9609375 40.2509766,14.5390625 40.2509766,12.0888672 C40.2509766,9.6640625 38.6386719,8.22949219 35.9726562,8.22949219 L31.4404297,8.22949219 Z M31.4404297,17.4970703 L31.4404297,25 L29.7138672,25 L29.7138672,6.68066406 L36.1757812,6.68066406 C39.7558594,6.68066406 42.0410156,8.77539062 42.0410156,12.0380859 C42.0410156,14.6279297 40.5683594,16.5830078 38.1181641,17.2177734 L42.5615234,25 L40.5302734,25 L36.3154297,17.4970703 L31.4404297,17.4970703 Z M49.0276693,13.0537109 C46.6663411,13.0537109 45.0286458,14.8691406 44.8889974,17.4716797 L53.039388,17.4716797 C53.0013021,14.8691406 51.414388,13.0537109 49.0276693,13.0537109 Z M52.9378255,21.2548828 L54.6009114,21.2548828 C54.2073568,23.5400391 52.0618489,25.2158203 49.1546224,25.2158203 C45.4475911,25.2158203 43.1497396,22.6259766 43.1497396,18.4365234 C43.1497396,14.3359375 45.4729818,11.5810547 49.0530599,11.5810547 C52.5569661,11.5810547 54.7659505,14.1582031 54.7659505,18.09375 L54.7659505,18.8046875 L44.8763021,18.8046875 L44.8763021,18.90625 C44.8763021,21.8896484 46.5647786,23.7431641 49.1927083,23.7431641 C51.1858724,23.7431641 52.5696614,22.7021484 52.9378255,21.2548828 Z M60.7242838,23.7685547 C63.0348307,23.7685547 64.8502604,22.1308594 64.8502604,20.0361328 L64.8502604,18.5761719 L60.9401041,18.8427734 C58.8580729,18.9824219 57.7027994,19.8837891 57.7027994,21.34375 C57.7027994,22.7783203 58.9342448,23.7685547 60.7242838,23.7685547 Z M60.3815104,25.2158203 C57.7789713,25.2158203 56.0016276,23.6542969 56.0016276,21.34375 C56.0016276,19.0839844 57.6901041,17.7128906 60.7369791,17.5097656 L64.8502604,17.2558594 L64.8502604,16.1132812 C64.8502604,14.2089844 63.6442057,13.0664062 61.5875651,13.0664062 C59.6451823,13.0664062 58.4010416,14.0185547 58.1090494,15.6181641 L56.4840494,15.6181641 C56.6744791,13.2568359 58.6168619,11.5810547 61.625651,11.5810547 C64.6344401,11.5810547 66.5260416,13.2695312 66.5260416,15.9609375 L66.5260416,25 L64.9264323,25 L64.9264323,22.4863281 L64.8883463,22.4863281 C64.1520182,24.1240234 62.3492838,25.2158203 60.3815104,25.2158203 Z M73.7919921,25.2158203 C70.4531249,25.2158203 68.1425781,22.4990234 68.1425781,18.3984375 C68.1425781,14.2851562 70.4404296,11.5810547 73.7539062,11.5810547 C75.8867187,11.5810547 77.5751953,12.7998047 78.2734374,14.5136719 L78.3115234,14.5136719 L78.3115234,6.68066406 L79.9999999,6.68066406 L79.9999999,25 L78.4003906,25 L78.4003906,22.2070312 L78.3623046,22.2070312 C77.6132812,23.984375 75.9248046,25.2158203 73.7919921,25.2158203 Z M74.0839843,13.0664062 C71.5449218,13.0664062 69.8691406,15.1738281 69.8691406,18.3984375 C69.8691406,21.6230469 71.5449218,23.7304688 74.0839843,23.7304688 C76.5976562,23.7304688 78.3242187,21.5976562 78.3242187,18.3984375 C78.3242187,15.2119141 76.5976562,13.0664062 74.0839843,13.0664062 Z M83.4192708,29.7734375 C83.1526692,29.7734375 82.7718098,29.7353516 82.5813801,29.6972656 L82.5813801,28.2626953 C82.7845051,28.3134766 83.1018879,28.3388672 83.3684895,28.3388672 C84.5872395,28.3388672 85.2473958,27.7294922 85.8313801,26.0791016 L86.1741536,25.0888672 L81.235677,11.796875 L83.0384114,11.796875 L87.0501301,23.3242188 L87.0882161,23.3242188 L91.0999348,11.796875 L92.8772786,11.796875 L87.6848958,25.7998047 C86.5296223,28.9101562 85.5774739,29.7734375 83.4192708,29.7734375 Z M98.0865884,25 L96.3473306,25 L96.3473306,8.25488281 L90.3043619,8.25488281 L90.3043619,6.68066406 L104.142253,6.68066406 L104.142253,8.25488281 L98.0865884,8.25488281 L98.0865884,25 Z M107.498047,13.0537109 C105.136719,13.0537109 103.499023,14.8691406 103.359375,17.4716797 L111.509766,17.4716797 C111.47168,14.8691406 109.884766,13.0537109 107.498047,13.0537109 Z M111.408203,21.2548828 L113.071289,21.2548828 C112.677734,23.5400391 110.532226,25.2158203 107.625,25.2158203 C103.917969,25.2158203 101.620117,22.6259766 101.620117,18.4365234 C101.620117,14.3359375 103.943359,11.5810547 107.523437,11.5810547 C111.027344,11.5810547 113.236328,14.1582031 113.236328,18.09375 L113.236328,18.8046875 L103.34668,18.8046875 L103.34668,18.90625 C103.34668,21.8896484 105.035156,23.7431641 107.663086,23.7431641 C109.65625,23.7431641 111.040039,22.7021484 111.408203,21.2548828 Z M114.67513,15.3261719 C114.67513,13.1425781 116.617513,11.5810547 119.372396,11.5810547 C122.190755,11.5810547 124.069661,13.21875 124.222005,15.6181641 L122.6097,15.6181641 C122.39388,13.9677734 121.200521,12.9648438 119.372396,12.9648438 C117.569661,12.9648438 116.338216,13.9169922 116.338216,15.2373047 C116.338216,16.3164062 117.087239,16.9892578 118.839193,17.4082031 L120.832357,17.8779297 C123.472982,18.5126953 124.463216,19.5283203 124.463216,21.3945312 C124.463216,23.6289062 122.368489,25.2158203 119.486654,25.2158203 C116.503255,25.2158203 114.522786,23.6289062 114.294271,21.2167969 L115.970052,21.2167969 C116.223958,22.8798828 117.506185,23.8320312 119.486654,23.8320312 C121.467122,23.8320312 122.774739,22.9052734 122.774739,21.5214844 C122.774739,20.3789062 122.127279,19.7441406 120.349935,19.3125 L118.369466,18.8427734 C115.855794,18.2587891 114.67513,17.1542969 114.67513,15.3261719 Z M126.892252,8.49609375 L128.568034,8.49609375 L128.568034,11.796875 L131.170573,11.796875 L131.170573,13.1933594 L128.568034,13.1933594 L128.568034,21.6738281 C128.568034,23.0322266 129.101237,23.6162109 130.319987,23.6162109 C130.497721,23.6162109 131.132487,23.5908203 131.234049,23.5654297 L131.234049,25 C131.056315,25.0380859 130.345377,25.0761719 129.989909,25.0761719 C127.780924,25.0761719 126.892252,24.1367188 126.892252,21.75 L126.892252,13.1933594 L124.924479,13.1933594 L124.924479,11.796875 L126.892252,11.796875 L126.892252,8.49609375 Z" id="ReadyTest"></path>
                </g>
            </g>
        </g>
    </g>
</svg>